<mxfile host="65bd71144e" scale="4" border="0">
    <diagram id="zcjRhHv8CTLXdRoGBuVu" name="Page-1">
        <mxGraphModel dx="1405" dy="1691" grid="1" gridSize="10" guides="1" tooltips="1" connect="1" arrows="1" fold="1" page="1" pageScale="1" pageWidth="583" pageHeight="827" math="1" shadow="0">
            <root>
                <mxCell id="0"/>
                <mxCell id="1" parent="0"/>
                <mxCell id="95" value="" style="group" parent="1" vertex="1" connectable="0">
                    <mxGeometry x="80" y="-10" width="440" height="20" as="geometry"/>
                </mxCell>
                <mxCell id="96" value="" style="rounded=0;whiteSpace=wrap;html=1;fillColor=#DEF2DD;strokeColor=#B4C4B3;strokeWidth=0.5;" parent="95" vertex="1">
                    <mxGeometry y="15" width="8.627450980392156" height="5" as="geometry"/>
                </mxCell>
                <mxCell id="97" value="" style="rounded=0;whiteSpace=wrap;html=1;fillColor=#DEF2DD;strokeColor=#B4C4B3;strokeWidth=0.5;" parent="95" vertex="1">
                    <mxGeometry x="77.6470588235294" y="10" width="8.627450980392156" height="10" as="geometry"/>
                </mxCell>
                <mxCell id="98" value="" style="rounded=0;whiteSpace=wrap;html=1;fillColor=#DEF2DD;strokeColor=#B4C4B3;strokeWidth=0.5;" parent="95" vertex="1">
                    <mxGeometry x="86.27450980392156" y="10" width="8.627450980392156" height="10" as="geometry"/>
                </mxCell>
                <mxCell id="99" value="" style="rounded=0;whiteSpace=wrap;html=1;fillColor=#DEF2DD;strokeColor=#B4C4B3;strokeWidth=0.5;" parent="95" vertex="1">
                    <mxGeometry x="172.54901960784312" y="5" width="8.627450980392156" height="15" as="geometry"/>
                </mxCell>
                <mxCell id="100" value="" style="rounded=0;whiteSpace=wrap;html=1;fillColor=#DEF2DD;strokeColor=#B4C4B3;strokeWidth=0.5;" parent="95" vertex="1">
                    <mxGeometry x="181.17647058823528" y="5" width="8.627450980392156" height="15" as="geometry"/>
                </mxCell>
                <mxCell id="101" value="" style="rounded=0;whiteSpace=wrap;html=1;fillColor=#DEF2DD;strokeColor=#B4C4B3;strokeWidth=0.5;" parent="95" vertex="1">
                    <mxGeometry x="189.80392156862746" y="5" width="8.627450980392156" height="15" as="geometry"/>
                </mxCell>
                <mxCell id="102" value="" style="rounded=0;whiteSpace=wrap;html=1;fillColor=#DEF2DD;strokeColor=#B4C4B3;strokeWidth=0.5;" parent="95" vertex="1">
                    <mxGeometry x="198.43137254901958" y="5" width="8.627450980392156" height="15" as="geometry"/>
                </mxCell>
                <mxCell id="103" value="" style="rounded=0;whiteSpace=wrap;html=1;fillColor=#DEF2DD;strokeColor=#B4C4B3;strokeWidth=0.5;" parent="95" vertex="1">
                    <mxGeometry x="207.05882352941174" y="5" width="8.627450980392156" height="15" as="geometry"/>
                </mxCell>
                <mxCell id="104" value="" style="rounded=0;whiteSpace=wrap;html=1;fillColor=#DEF2DD;strokeColor=#B4C4B3;strokeWidth=0.5;" parent="95" vertex="1">
                    <mxGeometry x="215.6862745098039" y="5" width="8.627450980392156" height="15" as="geometry"/>
                </mxCell>
                <mxCell id="105" value="" style="rounded=0;whiteSpace=wrap;html=1;fillColor=#DEF2DD;strokeColor=#B4C4B3;strokeWidth=0.5;" parent="95" vertex="1">
                    <mxGeometry x="224.31372549019608" y="5" width="8.627450980392156" height="15" as="geometry"/>
                </mxCell>
                <mxCell id="106" value="" style="group;fillColor=#DEF2DD;strokeColor=#B4C4B3;container=0;strokeWidth=0.5;" parent="95" vertex="1" connectable="0">
                    <mxGeometry x="94.90196078431373" y="8" width="77.6470588235294" height="12" as="geometry"/>
                </mxCell>
                <mxCell id="107" value="" style="rounded=0;whiteSpace=wrap;html=1;fillColor=#DEF2DD;strokeColor=#B4C4B3;strokeWidth=0.5;" parent="95" vertex="1">
                    <mxGeometry x="8.627450980392156" y="13.5" width="8.627450980392156" height="6.5" as="geometry"/>
                </mxCell>
                <mxCell id="108" value="" style="rounded=0;whiteSpace=wrap;html=1;fillColor=#DEF2DD;strokeColor=#B4C4B3;strokeWidth=0.5;" parent="95" vertex="1">
                    <mxGeometry x="17.254901960784313" y="13.5" width="8.627450980392156" height="6.5" as="geometry"/>
                </mxCell>
                <mxCell id="109" value="" style="group;fillColor=#DEF2DD;strokeColor=#B4C4B3;container=0;strokeWidth=0.5;" parent="95" vertex="1" connectable="0">
                    <mxGeometry x="25.882352941176467" y="12" width="51.764705882352935" height="8" as="geometry"/>
                </mxCell>
                <mxCell id="110" value="" style="rounded=0;whiteSpace=wrap;html=1;fillColor=#DEF2DD;strokeColor=#B4C4B3;strokeWidth=0.5;" parent="95" vertex="1">
                    <mxGeometry x="414.1176470588235" width="8.627450980392156" height="20" as="geometry"/>
                </mxCell>
                <mxCell id="111" value="" style="rounded=0;whiteSpace=wrap;html=1;fillColor=#DEF2DD;strokeColor=#B4C4B3;strokeWidth=0.5;" parent="95" vertex="1">
                    <mxGeometry x="422.74509803921563" width="8.627450980392156" height="20" as="geometry"/>
                </mxCell>
                <mxCell id="112" value="" style="rounded=0;whiteSpace=wrap;html=1;fillColor=#DEF2DD;strokeColor=#B4C4B3;strokeWidth=0.5;" parent="95" vertex="1">
                    <mxGeometry x="431.3725490196078" width="8.627450980392156" height="20" as="geometry"/>
                </mxCell>
                <mxCell id="113" value="" style="rounded=0;whiteSpace=wrap;html=1;fillColor=#DEF2DD;strokeColor=#B4C4B3;strokeWidth=0.5;" parent="95" vertex="1">
                    <mxGeometry x="379.6078431372549" y="1" width="8.627450980392156" height="19" as="geometry"/>
                </mxCell>
                <mxCell id="114" value="" style="rounded=0;whiteSpace=wrap;html=1;fillColor=#DEF2DD;strokeColor=#B4C4B3;strokeWidth=0.5;" parent="95" vertex="1">
                    <mxGeometry x="388.2352941176471" y="1" width="8.627450980392156" height="19" as="geometry"/>
                </mxCell>
                <mxCell id="115" value="" style="rounded=0;whiteSpace=wrap;html=1;fillColor=#DEF2DD;strokeColor=#B4C4B3;strokeWidth=0.5;" parent="95" vertex="1">
                    <mxGeometry x="396.86274509803917" y="1" width="8.627450980392156" height="19" as="geometry"/>
                </mxCell>
                <mxCell id="116" value="" style="rounded=0;whiteSpace=wrap;html=1;fillColor=#DEF2DD;strokeColor=#B4C4B3;strokeWidth=0.5;" parent="95" vertex="1">
                    <mxGeometry x="405.4901960784313" y="1" width="8.627450980392156" height="19" as="geometry"/>
                </mxCell>
                <mxCell id="117" value="" style="rounded=0;whiteSpace=wrap;html=1;fillColor=#DEF2DD;strokeColor=#B4C4B3;strokeWidth=0.5;" parent="95" vertex="1">
                    <mxGeometry x="345.09803921568624" y="2" width="8.627450980392156" height="18" as="geometry"/>
                </mxCell>
                <mxCell id="118" value="" style="rounded=0;whiteSpace=wrap;html=1;fillColor=#DEF2DD;strokeColor=#B4C4B3;strokeWidth=0.5;" parent="95" vertex="1">
                    <mxGeometry x="353.7254901960784" y="2" width="8.627450980392156" height="18" as="geometry"/>
                </mxCell>
                <mxCell id="119" value="" style="rounded=0;whiteSpace=wrap;html=1;fillColor=#DEF2DD;strokeColor=#B4C4B3;strokeWidth=0.5;" parent="95" vertex="1">
                    <mxGeometry x="362.35294117647055" y="2" width="8.627450980392156" height="18" as="geometry"/>
                </mxCell>
                <mxCell id="120" value="" style="rounded=0;whiteSpace=wrap;html=1;fillColor=#DEF2DD;strokeColor=#B4C4B3;strokeWidth=0.5;" parent="95" vertex="1">
                    <mxGeometry x="370.9803921568627" y="2" width="8.627450980392156" height="18" as="geometry"/>
                </mxCell>
                <mxCell id="121" value="" style="rounded=0;whiteSpace=wrap;html=1;fillColor=#DEF2DD;strokeColor=#B4C4B3;strokeWidth=0.5;" parent="95" vertex="1">
                    <mxGeometry x="310.5882352941176" y="2.5" width="8.627450980392156" height="17.5" as="geometry"/>
                </mxCell>
                <mxCell id="122" value="" style="rounded=0;whiteSpace=wrap;html=1;fillColor=#DEF2DD;strokeColor=#B4C4B3;strokeWidth=0.5;" parent="95" vertex="1">
                    <mxGeometry x="319.2156862745098" y="2.5" width="8.627450980392156" height="17.5" as="geometry"/>
                </mxCell>
                <mxCell id="123" value="" style="rounded=0;whiteSpace=wrap;html=1;fillColor=#DEF2DD;strokeColor=#B4C4B3;strokeWidth=0.5;" parent="95" vertex="1">
                    <mxGeometry x="327.843137254902" y="2.5" width="8.627450980392156" height="17.5" as="geometry"/>
                </mxCell>
                <mxCell id="124" value="" style="rounded=0;whiteSpace=wrap;html=1;fillColor=#DEF2DD;strokeColor=#B4C4B3;strokeWidth=0.5;" parent="95" vertex="1">
                    <mxGeometry x="336.4705882352941" y="2.5" width="8.627450980392156" height="17.5" as="geometry"/>
                </mxCell>
                <mxCell id="125" value="" style="rounded=0;whiteSpace=wrap;html=1;fillColor=#DEF2DD;strokeColor=#B4C4B3;strokeWidth=0.5;" parent="95" vertex="1">
                    <mxGeometry x="276.078431372549" y="3.5" width="8.627450980392156" height="16.5" as="geometry"/>
                </mxCell>
                <mxCell id="126" value="" style="rounded=0;whiteSpace=wrap;html=1;fillColor=#DEF2DD;strokeColor=#B4C4B3;strokeWidth=0.5;" parent="95" vertex="1">
                    <mxGeometry x="284.70588235294116" y="3.5" width="8.627450980392156" height="16.5" as="geometry"/>
                </mxCell>
                <mxCell id="127" value="" style="rounded=0;whiteSpace=wrap;html=1;fillColor=#DEF2DD;strokeColor=#B4C4B3;strokeWidth=0.5;" parent="95" vertex="1">
                    <mxGeometry x="293.3333333333333" y="3.5" width="8.627450980392156" height="16.5" as="geometry"/>
                </mxCell>
                <mxCell id="128" value="" style="rounded=0;whiteSpace=wrap;html=1;fillColor=#DEF2DD;strokeColor=#B4C4B3;strokeWidth=0.5;" parent="95" vertex="1">
                    <mxGeometry x="301.96078431372547" y="3.5" width="8.627450980392156" height="16.5" as="geometry"/>
                </mxCell>
                <mxCell id="129" value="" style="rounded=0;whiteSpace=wrap;html=1;fillColor=#DEF2DD;strokeColor=#B4C4B3;strokeWidth=0.5;" parent="95" vertex="1">
                    <mxGeometry x="232.9411764705882" y="4" width="8.627450980392156" height="16" as="geometry"/>
                </mxCell>
                <mxCell id="130" value="" style="rounded=0;whiteSpace=wrap;html=1;fillColor=#DEF2DD;strokeColor=#B4C4B3;strokeWidth=0.5;" parent="95" vertex="1">
                    <mxGeometry x="241.56862745098036" y="4" width="8.627450980392156" height="16" as="geometry"/>
                </mxCell>
                <mxCell id="131" value="" style="rounded=0;whiteSpace=wrap;html=1;fillColor=#DEF2DD;strokeColor=#B4C4B3;strokeWidth=0.5;" parent="95" vertex="1">
                    <mxGeometry x="250.1960784313725" y="4" width="8.627450980392156" height="16" as="geometry"/>
                </mxCell>
                <mxCell id="132" value="" style="rounded=0;whiteSpace=wrap;html=1;fillColor=#DEF2DD;strokeColor=#B4C4B3;strokeWidth=0.5;" parent="95" vertex="1">
                    <mxGeometry x="258.8235294117647" y="4" width="8.627450980392156" height="16" as="geometry"/>
                </mxCell>
                <mxCell id="133" value="" style="rounded=0;whiteSpace=wrap;html=1;fillColor=#DEF2DD;strokeColor=#B4C4B3;strokeWidth=0.5;" parent="95" vertex="1">
                    <mxGeometry x="267.4509803921569" y="4" width="8.627450980392156" height="16" as="geometry"/>
                </mxCell>
                <mxCell id="134" value="" style="rounded=0;whiteSpace=wrap;html=1;fillColor=#DEF2DD;strokeColor=#B4C4B3;strokeWidth=0.5;" parent="95" vertex="1">
                    <mxGeometry x="94.90196078431373" y="8" width="8.627450980392156" height="12" as="geometry"/>
                </mxCell>
                <mxCell id="135" value="" style="rounded=0;whiteSpace=wrap;html=1;fillColor=#DEF2DD;strokeColor=#B4C4B3;strokeWidth=0.5;" parent="95" vertex="1">
                    <mxGeometry x="103.52941176470587" y="8" width="8.627450980392156" height="12" as="geometry"/>
                </mxCell>
                <mxCell id="136" value="" style="rounded=0;whiteSpace=wrap;html=1;fillColor=#DEF2DD;strokeColor=#B4C4B3;strokeWidth=0.5;" parent="95" vertex="1">
                    <mxGeometry x="112.15686274509804" y="8" width="8.627450980392156" height="12" as="geometry"/>
                </mxCell>
                <mxCell id="137" value="" style="rounded=0;whiteSpace=wrap;html=1;fillColor=#DEF2DD;strokeColor=#B4C4B3;strokeWidth=0.5;" parent="95" vertex="1">
                    <mxGeometry x="120.78431372549018" y="8" width="8.627450980392156" height="12" as="geometry"/>
                </mxCell>
                <mxCell id="138" value="" style="group;fillColor=#DEF2DD;strokeColor=#B4C4B3;container=0;strokeWidth=0.5;" parent="95" vertex="1" connectable="0">
                    <mxGeometry x="129.41176470588235" y="6.5" width="43.13725490196078" height="13.5" as="geometry"/>
                </mxCell>
                <mxCell id="139" value="" style="rounded=0;whiteSpace=wrap;html=1;fillColor=#DEF2DD;strokeColor=#B4C4B3;strokeWidth=0.5;" parent="95" vertex="1">
                    <mxGeometry x="129.41176470588235" y="6.5" width="8.627450980392156" height="13.5" as="geometry"/>
                </mxCell>
                <mxCell id="140" value="" style="rounded=0;whiteSpace=wrap;html=1;fillColor=#DEF2DD;strokeColor=#B4C4B3;strokeWidth=0.5;" parent="95" vertex="1">
                    <mxGeometry x="138.0392156862745" y="6.5" width="8.627450980392156" height="13.5" as="geometry"/>
                </mxCell>
                <mxCell id="141" value="" style="rounded=0;whiteSpace=wrap;html=1;fillColor=#DEF2DD;strokeColor=#B4C4B3;strokeWidth=0.5;" parent="95" vertex="1">
                    <mxGeometry x="146.66666666666666" y="6.5" width="8.627450980392156" height="13.5" as="geometry"/>
                </mxCell>
                <mxCell id="142" value="" style="rounded=0;whiteSpace=wrap;html=1;fillColor=#DEF2DD;strokeColor=#B4C4B3;strokeWidth=0.5;" parent="95" vertex="1">
                    <mxGeometry x="155.2941176470588" y="6.5" width="8.627450980392156" height="13.5" as="geometry"/>
                </mxCell>
                <mxCell id="143" value="" style="rounded=0;whiteSpace=wrap;html=1;fillColor=#DEF2DD;strokeColor=#B4C4B3;strokeWidth=0.5;" parent="95" vertex="1">
                    <mxGeometry x="163.921568627451" y="6.5" width="8.627450980392156" height="13.5" as="geometry"/>
                </mxCell>
                <mxCell id="144" value="" style="rounded=0;whiteSpace=wrap;html=1;fillColor=#DEF2DD;strokeColor=#B4C4B3;strokeWidth=0.5;" parent="95" vertex="1">
                    <mxGeometry x="25.882352941176467" y="12" width="8.627450980392156" height="8" as="geometry"/>
                </mxCell>
                <mxCell id="145" value="" style="rounded=0;whiteSpace=wrap;html=1;fillColor=#DEF2DD;strokeColor=#B4C4B3;strokeWidth=0.5;" parent="95" vertex="1">
                    <mxGeometry x="34.509803921568626" y="12" width="8.627450980392156" height="8" as="geometry"/>
                </mxCell>
                <mxCell id="146" value="" style="rounded=0;whiteSpace=wrap;html=1;fillColor=#DEF2DD;strokeColor=#B4C4B3;strokeWidth=0.5;" parent="95" vertex="1">
                    <mxGeometry x="43.13725490196078" y="12" width="8.627450980392156" height="8" as="geometry"/>
                </mxCell>
                <mxCell id="147" value="" style="group;fillColor=#DEF2DD;strokeColor=#B4C4B3;container=0;strokeWidth=0.5;" parent="95" vertex="1" connectable="0">
                    <mxGeometry x="51.764705882352935" y="11" width="25.882352941176467" height="9" as="geometry"/>
                </mxCell>
                <mxCell id="148" value="" style="rounded=0;whiteSpace=wrap;html=1;fillColor=#DEF2DD;strokeColor=#B4C4B3;strokeWidth=0.5;" parent="95" vertex="1">
                    <mxGeometry x="51.764705882352935" y="11" width="8.627450980392156" height="9" as="geometry"/>
                </mxCell>
                <mxCell id="149" value="" style="rounded=0;whiteSpace=wrap;html=1;fillColor=#DEF2DD;strokeColor=#B4C4B3;strokeWidth=0.5;" parent="95" vertex="1">
                    <mxGeometry x="60.39215686274509" y="11" width="8.627450980392156" height="9" as="geometry"/>
                </mxCell>
                <mxCell id="150" value="" style="rounded=0;whiteSpace=wrap;html=1;fillColor=#DEF2DD;strokeColor=#B4C4B3;strokeWidth=0.5;" parent="95" vertex="1">
                    <mxGeometry x="69.01960784313725" y="11" width="8.627450980392156" height="9" as="geometry"/>
                </mxCell>
                <mxCell id="151" value="" style="whiteSpace=wrap;html=1;fillColor=#D5E8D455;strokeColor=#82b366;sketch=0;" parent="95" vertex="1">
                    <mxGeometry width="440" height="20" as="geometry"/>
                </mxCell>
                <mxCell id="152" value="Tableau trié" style="text;html=1;align=right;verticalAlign=middle;resizable=0;points=[];autosize=1;strokeColor=none;fillColor=none;fontColor=#000000;" parent="1" vertex="1">
                    <mxGeometry x="-24.760000000000005" y="-10" width="80" height="20" as="geometry"/>
                </mxCell>
                <mxCell id="153" value="&lt;font face=&quot;Courier New&quot;&gt;0&lt;/font&gt;" style="text;html=1;align=center;verticalAlign=middle;resizable=0;points=[];autosize=1;strokeColor=none;fillColor=none;sketch=1;fontStyle=1" parent="1" vertex="1">
                    <mxGeometry x="78" y="10" width="20" height="20" as="geometry"/>
                </mxCell>
                <mxCell id="154" value="n" style="text;html=1;align=center;verticalAlign=middle;resizable=0;points=[];autosize=1;strokeColor=none;fillColor=none;fontFamily=Courier New;sketch=1;fontStyle=1" parent="1" vertex="1">
                    <mxGeometry x="520" y="10" width="20" height="20" as="geometry"/>
                </mxCell>
            </root>
        </mxGraphModel>
    </diagram>
</mxfile>